<svg width="1514" height="1130" viewBox="0 0 1514 1130" fill="none" xmlns="http://www.w3.org/2000/svg">
<rect width="1514" height="1130" fill="white"/>
<path d="M1067.3 34.4512L75.8149 625.803L108.232 680.867L1099.72 89.5152L1067.3 34.4512Z" fill="#F2F2F2"/>
<path d="M1233.89 129.728L223.173 731.671L255.624 786.714L1266.34 184.77L1233.89 129.728Z" fill="#F2F2F2"/>
<path d="M1097.15 393.801L502.45 747.985L534.902 803.028L1129.61 448.843L1097.15 393.801Z" fill="#F2F2F2"/>
<path d="M691.483 788.482C878.064 788.482 1029.32 636.462 1029.32 448.935C1029.32 261.408 878.064 109.388 691.483 109.388C504.902 109.388 353.647 261.408 353.647 448.935C353.647 636.462 504.902 788.482 691.483 788.482Z" fill="white"/>
<path d="M351.135 448.935C351.135 260.315 503.814 106.862 691.483 106.862C879.151 106.862 1031.83 260.315 1031.83 448.935C1031.83 637.554 879.151 791.008 691.483 791.008C503.814 791.008 351.135 637.554 351.135 448.935ZM356.16 448.935C356.16 634.769 506.585 785.957 691.483 785.957C876.38 785.957 1026.81 634.769 1026.81 448.935C1026.81 263.101 876.38 111.913 691.483 111.913C506.585 111.913 356.16 263.101 356.16 448.935H356.16Z" fill="#CCCCCC"/>
<path d="M631.26 450.411C631.26 438.44 634.792 426.737 641.409 416.784C648.027 406.83 657.432 399.072 668.437 394.491C679.441 389.909 691.55 388.711 703.232 391.046C714.914 393.382 725.644 399.146 734.067 407.611C742.489 416.076 748.225 426.861 750.549 438.603C752.872 450.344 751.68 462.514 747.122 473.574C742.563 484.634 734.844 494.087 724.941 500.738C715.037 507.389 703.394 510.939 691.483 510.939C675.511 510.939 660.193 504.562 648.899 493.211C637.605 481.86 631.26 466.464 631.26 450.411V450.411ZM691.483 392.836C676.295 392.853 661.734 398.924 650.995 409.718C640.256 420.512 634.215 435.147 634.198 450.411V450.411C634.198 461.799 637.557 472.93 643.852 482.398C650.147 491.867 659.093 499.246 669.561 503.604C680.028 507.962 691.546 509.102 702.659 506.88C713.771 504.659 723.978 499.175 731.99 491.123C740.001 483.071 745.457 472.812 747.667 461.644C749.878 450.475 748.743 438.899 744.407 428.378C740.072 417.858 732.729 408.865 723.309 402.539C713.888 396.212 702.813 392.836 691.483 392.836V392.836Z" fill="#CCCCCC"/>
<path d="M576.913 450.411C576.913 427.636 583.632 405.373 596.221 386.437C608.811 367.5 626.704 352.741 647.639 344.026C668.574 335.31 691.61 333.03 713.835 337.473C736.059 341.916 756.473 352.883 772.496 368.987C788.519 385.091 799.431 405.609 803.852 427.946C808.272 450.283 806.004 473.437 797.332 494.478C788.66 515.519 773.976 533.503 755.135 546.156C736.294 558.809 714.143 565.562 691.483 565.562C676.437 565.562 661.539 562.584 647.639 556.797C633.739 551.01 621.108 542.528 610.47 531.835C599.831 521.142 591.392 508.448 585.634 494.477C579.876 480.507 576.913 465.533 576.913 450.411V450.411ZM691.483 338.213C669.404 338.213 647.821 344.793 629.463 357.122C611.105 369.45 596.797 386.973 588.348 407.475C579.899 427.976 577.688 450.536 581.995 472.3C586.303 494.064 596.935 514.056 612.547 529.747C628.159 545.439 648.05 556.124 669.704 560.454C691.359 564.783 713.805 562.561 734.203 554.069C754.601 545.577 772.036 531.196 784.302 512.745C796.568 494.294 803.116 472.602 803.116 450.411C803.082 420.665 791.31 392.146 770.382 371.112C749.454 350.078 721.08 338.246 691.483 338.213Z" fill="#CCCCCC"/>
<path d="M510.395 448.096C510.395 411.915 521.07 376.547 541.071 346.463C561.071 316.38 589.499 292.933 622.758 279.087C656.018 265.242 692.616 261.619 727.924 268.677C763.233 275.736 795.665 293.159 821.121 318.742C846.577 344.326 863.913 376.922 870.936 412.407C877.959 447.893 874.354 484.675 860.578 518.101C846.801 551.528 823.471 580.098 793.539 600.199C763.606 620.3 728.414 631.029 692.414 631.029C668.511 631.029 644.842 626.297 622.758 617.104C600.675 607.911 580.609 594.436 563.707 577.449C546.805 560.462 533.397 540.296 524.25 518.101C515.103 495.907 510.395 472.119 510.395 448.096V448.096ZM692.414 269.853C657.337 269.853 623.048 280.307 593.882 299.892C564.717 319.478 541.985 347.316 528.562 379.885C515.139 412.455 511.626 448.293 518.47 482.869C525.313 517.445 542.204 549.205 567.007 574.132C591.81 599.06 623.411 616.036 657.814 622.913C692.217 629.791 727.877 626.261 760.284 612.77C792.691 599.28 820.389 576.434 839.877 547.122C859.365 517.81 869.766 483.349 869.766 448.096C869.713 400.839 851.011 355.533 817.762 322.118C784.514 288.702 739.434 269.906 692.414 269.853Z" fill="#CCCCCC"/>
<path d="M446.362 448.096C446.362 399.187 460.793 351.376 487.829 310.71C514.866 270.044 553.294 238.348 598.254 219.632C643.214 200.915 692.687 196.018 740.416 205.56C788.146 215.101 831.988 238.653 866.399 273.237C900.81 307.821 924.244 351.883 933.738 399.852C943.232 447.822 938.359 497.543 919.736 542.729C901.113 587.915 869.576 626.536 829.113 653.708C788.65 680.88 741.078 695.383 692.414 695.383C627.179 695.309 564.638 669.232 518.51 622.873C472.382 576.513 446.435 513.658 446.362 448.096V448.096ZM692.414 204.062C644.39 204.062 597.444 218.374 557.513 245.189C517.583 272.004 486.461 310.117 468.083 354.708C449.705 399.3 444.896 448.367 454.265 495.704C463.634 543.042 486.76 586.525 520.718 620.654C554.676 654.783 597.942 678.025 645.043 687.441C692.145 696.857 740.966 692.024 785.335 673.554C829.703 655.083 867.626 623.805 894.307 583.674C920.987 543.543 935.228 496.361 935.228 448.096C935.155 383.397 909.55 321.368 864.029 275.619C818.508 229.869 756.79 204.135 692.414 204.062V204.062Z" fill="#CCCCCC"/>
<path d="M399.884 448.692C399.884 390.237 417.165 333.095 449.541 284.491C481.916 235.888 527.934 198.006 581.773 175.636C635.612 153.266 694.855 147.413 752.01 158.817C809.166 170.221 861.666 198.37 902.873 239.704C944.08 281.038 972.142 333.7 983.511 391.032C994.88 448.364 989.045 507.79 966.744 561.795C944.443 615.8 906.678 661.96 858.224 694.435C809.77 726.911 752.803 744.245 694.528 744.245C616.411 744.157 541.518 712.99 486.281 657.582C431.043 602.174 399.972 527.05 399.884 448.692V448.692ZM694.528 157.027C637.02 157.027 580.803 174.133 532.987 206.182C485.17 238.23 447.902 283.782 425.894 337.077C403.887 390.371 398.129 449.015 409.348 505.593C420.567 562.17 448.26 614.14 488.925 654.93C529.589 695.72 581.399 723.498 637.802 734.752C694.206 746.006 752.669 740.23 805.8 718.155C858.931 696.079 904.342 658.696 936.292 610.732C968.242 562.768 985.295 506.378 985.295 448.692C985.208 371.364 954.546 297.229 900.035 242.55C845.525 187.872 771.618 157.115 694.528 157.027V157.027Z" fill="#CCCCCC"/>
<path d="M691.483 476.985C706.896 476.985 719.391 464.426 719.391 448.935C719.391 433.444 706.896 420.885 691.483 420.885C676.07 420.885 663.575 433.444 663.575 448.935C663.575 464.426 676.07 476.985 691.483 476.985Z" fill="#6C63FF"/>
<path d="M619.509 558.18C634.922 558.18 647.417 545.622 647.417 530.131C647.417 514.64 634.922 502.081 619.509 502.081C604.096 502.081 591.601 514.64 591.601 530.131C591.601 545.622 604.096 558.18 619.509 558.18Z" fill="#6C63FF"/>
<path d="M691.483 462.221C698.784 462.221 704.703 456.273 704.703 448.935C704.703 441.597 698.784 435.648 691.483 435.648C684.182 435.648 678.263 441.597 678.263 448.935C678.263 456.273 684.182 462.221 691.483 462.221Z" fill="#2F2E41"/>
<path d="M927.575 546.37C942.988 546.37 955.483 533.812 955.483 518.321C955.483 502.829 942.988 490.271 927.575 490.271C912.161 490.271 899.667 502.829 899.667 518.321C899.667 533.812 912.161 546.37 927.575 546.37Z" fill="#6C63FF"/>
<path d="M927.575 531.607C934.876 531.607 940.794 525.659 940.794 518.321C940.794 510.983 934.876 505.034 927.575 505.034C920.274 505.034 914.355 510.983 914.355 518.321C914.355 525.659 920.274 531.607 927.575 531.607Z" fill="#2F2E41"/>
<path d="M606.991 204.47C622.404 204.47 634.899 191.912 634.899 176.421C634.899 160.929 622.404 148.371 606.991 148.371C591.578 148.371 579.083 160.929 579.083 176.421C579.083 191.912 591.578 204.47 606.991 204.47Z" fill="#6C63FF"/>
<path d="M606.991 189.708C614.292 189.708 620.21 183.759 620.21 176.421C620.21 169.083 614.292 163.135 606.991 163.135C599.69 163.135 593.771 169.083 593.771 176.421C593.771 183.759 599.69 189.708 606.991 189.708Z" fill="#2F2E41"/>
<path d="M751.746 308.152C767.159 308.152 779.654 295.594 779.654 280.103C779.654 264.611 767.159 252.053 751.746 252.053C736.333 252.053 723.838 264.611 723.838 280.103C723.838 295.594 736.333 308.152 751.746 308.152Z" fill="#6C63FF"/>
<path d="M751.287 294.119C758.588 294.119 764.506 288.171 764.506 280.833C764.506 273.495 758.588 267.546 751.287 267.546C743.986 267.546 738.067 273.495 738.067 280.833C738.067 288.171 743.986 294.119 751.287 294.119Z" fill="#2F2E41"/>
<path d="M619.509 544.894C626.81 544.894 632.729 538.945 632.729 531.607C632.729 524.269 626.81 518.321 619.509 518.321C612.208 518.321 606.29 524.269 606.29 531.607C606.29 538.945 612.208 544.894 619.509 544.894Z" fill="#2F2E41"/>
<path d="M1198.24 1065.63L1183.75 1070.78L1156.88 1017.61L1178.27 1010L1198.24 1065.63Z" fill="#CF9292"/>
<path d="M1147.69 733.132L1133.21 738.286L1106.34 685.113L1127.72 677.507L1147.69 733.132Z" fill="#CF9292"/>
<path d="M1160.52 1095.81L1160.31 1095.22C1158.58 1090.35 1158.85 1085 1161.05 1080.34C1163.25 1075.68 1167.2 1072.08 1172.04 1070.34L1200.69 1060.06L1207.43 1078.98L1160.52 1095.81Z" fill="#2F2E41"/>
<path d="M1104.04 1080.32L1088.47 1080.32L1081.07 1020.73L1104.04 1020.73L1104.04 1080.32Z" fill="#CF9292"/>
<path d="M1107.49 1095.81L1058.1 1095.81V1095.17C1058.1 1092.59 1058.59 1090.04 1059.56 1087.66C1060.52 1085.28 1061.94 1083.12 1063.73 1081.3C1065.51 1079.48 1067.63 1078.03 1069.96 1077.04C1072.3 1076.06 1074.8 1075.55 1077.32 1075.55H1077.32L1107.49 1075.55L1107.49 1095.81Z" fill="#2F2E41"/>
<path d="M1139.65 699.986L1132.85 687.041C1132.85 687.041 1107.5 693.156 1105.19 707.301L1139.65 699.986Z" fill="#F2F2F2"/>
<path d="M1166.84 851.642L1148.56 953.742L1197.09 1039.66L1168.1 1051.01L1118.95 967.733L1112.64 945.019L1108.86 1063.63L1082.72 1062.84L1070.73 952.082L1089.96 849.119L1166.84 851.642Z" fill="#2F2E41"/>
<path d="M1079.8 869.637C1079.24 867.116 1077.62 790.161 1077.62 790.161C1077.62 790.161 1104.26 702.085 1104.5 701.361L1104.6 701.078L1124.82 693.442C1125.11 693.311 1131.84 690.288 1137.36 692.808C1138.77 693.501 1140.02 694.496 1141.01 695.725C1142 696.954 1142.72 698.386 1143.11 699.921C1145.4 701.642 1161.93 720.292 1161.93 745.589L1162.55 805.283L1176.41 869.999L1175.8 870.131C1175.42 870.212 1158.53 875.337 1131.92 875.337C1117.14 875.337 1079.8 869.637 1079.8 869.637Z" fill="#3F3D56"/>
<path d="M1112.08 687.041C1127.31 687.041 1139.65 674.769 1139.65 659.631C1139.65 644.493 1127.31 632.221 1112.08 632.221C1096.86 632.221 1084.52 644.493 1084.52 659.631C1084.52 674.769 1096.86 687.041 1112.08 687.041Z" fill="#CF9292"/>
<path opacity="0.2" d="M1151.14 776.422L1103.1 843.16L1096 811.994L1151.14 776.422Z" fill="black"/>
<path d="M1065.78 845.531C1067.49 845.461 1069.16 845.006 1070.67 844.197C1072.19 843.389 1073.52 842.247 1074.56 840.852C1075.6 839.457 1076.34 837.843 1076.71 836.123C1077.08 834.403 1077.09 832.62 1076.72 830.899L1112.08 808.499L1092.56 799.065L1061.97 821.783C1059.21 822.61 1056.84 824.453 1055.31 826.964C1053.77 829.475 1053.19 832.478 1053.66 835.405C1054.13 838.333 1055.62 840.98 1057.86 842.846C1060.09 844.712 1062.91 845.668 1065.78 845.531V845.531Z" fill="#CF9292"/>
<path d="M1090.09 800.257L1077.62 808.582L1088.2 826.476L1102.89 814.891L1090.09 800.257Z" fill="#F2F2F2"/>
<path d="M1083.37 800.03L1112.15 766.527L1101.12 720.316C1099.98 715.54 1100.61 710.511 1102.89 706.168C1105.18 701.824 1108.95 698.463 1113.52 696.712C1118.09 694.961 1123.14 694.94 1127.72 696.652C1132.31 698.365 1136.11 701.694 1138.43 706.018L1138.68 706.486L1148.84 775.109L1097.78 827.667L1083.37 800.03Z" fill="#3F3D56"/>
<path d="M1137.1 675.124L1125.48 675.101C1121.14 675.101 1115.02 661.021 1114.53 658.375C1114.14 656.652 1107.44 657.196 1105.82 656.121C1104.21 655.046 1102.2 654.513 1100.16 654.62C1098.47 654.757 1098.93 654.378 1094.53 651.168C1086.19 645.072 1085.36 641.528 1094.53 636.378C1100.5 633.028 1110.94 631.129 1110.94 631.129C1110.94 631.129 1120.26 630.37 1125.48 633.026C1133.3 637.01 1133.96 636.378 1137.1 641.308C1145.56 654.62 1140.38 665.263 1140.38 665.263C1140.38 665.263 1140.44 666.48 1136.53 675.101" fill="#2F2E41"/>
<path d="M1260.17 1095.81H983.532C983.2 1095.81 982.882 1095.68 982.647 1095.46C982.412 1095.24 982.28 1094.93 982.28 1094.62C982.28 1094.3 982.412 1094 982.647 1093.78C982.882 1093.55 983.2 1093.43 983.532 1093.43H1260.17C1260.5 1093.43 1260.82 1093.55 1261.05 1093.78C1261.28 1094 1261.42 1094.3 1261.42 1094.62C1261.42 1094.93 1261.28 1095.24 1261.05 1095.46C1260.82 1095.68 1260.5 1095.81 1260.17 1095.81Z" fill="#3F3D56"/>
<path d="M691.742 300.024H255.147V297.34H693.954V435.582H691.742V300.024Z" fill="#A6A6A6"/>
<path d="M288.065 360.502H126.491V370.836H288.065V360.502Z" fill="#CCCCCC"/>
<path d="M288.065 390.028H126.491V400.362H288.065V390.028Z" fill="#CCCCCC"/>
<path d="M288.065 419.554H126.491V429.888H288.065V419.554Z" fill="#CCCCCC"/>
<path d="M177.324 326.716C175.744 325.077 173.643 324.175 171.409 324.175C170.089 324.175 168.817 324.492 167.67 325.088C156.4 308.522 156.361 285.822 167.765 269.216C168.398 268.295 168.191 267.016 167.303 266.359C166.415 265.703 165.182 265.917 164.549 266.839C158.259 275.998 155.031 286.815 155.217 298.119C155.393 308.877 158.649 319.082 164.647 327.745C162.263 331.137 162.546 335.93 165.494 338.99C167.125 340.681 169.267 341.527 171.409 341.527C173.551 341.527 175.693 340.681 177.324 338.99C180.586 335.606 180.586 330.1 177.324 326.716ZM174.532 336.093C172.81 337.879 170.008 337.879 168.286 336.093C166.564 334.306 166.564 331.399 168.286 329.613C169.12 328.748 170.229 328.271 171.409 328.271C172.588 328.271 173.698 328.748 174.532 329.613C176.254 331.4 176.254 334.306 174.532 336.093Z" fill="#6C63FF"/>
<path d="M235.755 336.907C235.117 335.99 233.883 335.784 232.999 336.446C227.355 340.678 221.01 343.481 214.14 344.778C212.548 345.079 210.925 344.636 209.686 343.564C208.457 342.5 207.752 340.936 207.752 339.274V324.26H207.924C210.21 324.26 212.07 322.331 212.07 319.959V316.501C218.758 313.852 223.522 307.128 223.522 299.271V289.573C226.703 288.672 229.05 285.648 229.05 282.065C229.05 278.121 226.206 274.854 222.534 274.351V261.582C222.534 258.194 219.877 255.437 216.611 255.437C213.345 255.437 210.688 258.194 210.688 261.582V274.282H200.817V261.582C200.817 258.194 198.159 255.437 194.893 255.437C191.628 255.437 188.97 258.194 188.97 261.582V274.351C185.299 274.854 182.455 278.12 182.455 282.065C182.455 285.648 184.801 288.672 187.983 289.573V299.271C187.983 307.128 192.747 313.852 199.434 316.501V319.959C199.434 322.331 201.294 324.261 203.581 324.261H203.803V339.274C203.803 342.155 205.025 344.865 207.157 346.709C208.857 348.182 210.977 348.967 213.154 348.967C213.717 348.967 214.283 348.915 214.847 348.808C222.301 347.401 229.186 344.359 235.311 339.767C236.195 339.104 236.393 337.824 235.755 336.907ZM214.637 261.582C214.637 260.453 215.523 259.534 216.611 259.534C217.7 259.534 218.586 260.453 218.586 261.582V274.282H214.637V261.582ZM192.919 261.582C192.919 260.453 193.805 259.534 194.894 259.534C195.982 259.534 196.868 260.453 196.868 261.582V274.282H192.919V261.582ZM186.404 282.065C186.404 280.032 187.998 278.378 189.958 278.378H221.547C223.507 278.378 225.101 280.032 225.101 282.065C225.101 284.098 223.507 285.752 221.547 285.752H189.958C187.998 285.752 186.404 284.098 186.404 282.065ZM191.932 299.271V289.849H219.573V299.271C219.573 307.177 213.373 313.609 205.753 313.609C198.132 313.609 191.932 307.177 191.932 299.271ZM205.827 320.164C205.811 320.163 205.794 320.161 205.778 320.161C205.761 320.161 205.745 320.163 205.728 320.164H203.581C203.472 320.164 203.383 320.072 203.383 319.959V317.542C204.159 317.649 204.949 317.706 205.753 317.706C206.556 317.706 207.346 317.649 208.122 317.542V319.959C208.122 320.072 208.033 320.164 207.924 320.164H205.827Z" fill="#6C63FF"/>
<path d="M241.443 331.355C240.66 330.597 239.441 330.627 238.693 331.411C238.678 331.427 238.663 331.444 238.648 331.46C237.904 332.287 237.947 333.583 238.744 334.355C239.125 334.723 239.609 334.905 240.091 334.905C240.601 334.905 241.11 334.702 241.494 334.299C241.509 334.283 241.525 334.266 241.539 334.25C242.283 333.423 242.24 332.127 241.443 331.355Z" fill="#6C63FF"/>
<path d="M256.161 293.394C255.282 280.855 250.072 269.046 241.493 260.145C233.06 251.396 221.795 246.04 209.773 245.065C197.898 244.102 186.08 247.445 176.491 254.478C175.6 255.131 175.389 256.41 176.018 257.333C176.647 258.257 177.88 258.477 178.77 257.823C197.106 244.375 222.871 246.618 238.701 263.042C255.059 280.014 257.037 306.371 243.404 325.712C242.76 326.625 242.952 327.907 243.832 328.575C244.183 328.841 244.591 328.97 244.996 328.97C245.604 328.97 246.204 328.679 246.591 328.13C253.633 318.14 257.032 305.804 256.161 293.394Z" fill="#6C63FF"/>
<path d="M172.565 260.382C171.791 259.586 170.541 259.591 169.773 260.395L169.741 260.429C168.973 261.232 168.979 262.529 169.753 263.326C170.138 263.721 170.641 263.919 171.143 263.919C171.651 263.919 172.159 263.717 172.545 263.313L172.578 263.279C173.345 262.475 173.34 261.178 172.565 260.382Z" fill="#6C63FF"/>
<path d="M210.204 298.513C209.85 297.883 209.201 297.496 208.498 297.496H207.087L209.686 294.09C210.363 293.203 210.218 291.915 209.363 291.213C208.508 290.511 207.267 290.661 206.59 291.547L201.458 298.273C200.988 298.889 200.899 299.729 201.229 300.436C201.559 301.143 202.249 301.592 203.006 301.592H205.111L202.693 306.021C202.156 307.006 202.489 308.256 203.438 308.813C203.745 308.994 204.079 309.079 204.409 309.079C205.098 309.079 205.766 308.705 206.129 308.04L210.216 300.554C210.563 299.919 210.558 299.142 210.204 298.513Z" fill="#6C63FF"/>
<path d="M750.241 177.557L1124.67 173.398L1124.72 175.468L753.178 179.596V284.23H750.241V177.557Z" fill="#CCCCCC"/>
<path d="M1261.02 231.793H1099.45V242.128H1261.02V231.793Z" fill="#CCCCCC"/>
<path d="M1261.02 261.319H1099.45V271.653H1261.02V261.319Z" fill="#CCCCCC"/>
<path d="M1261.02 290.846H1099.45V301.18H1261.02V290.846Z" fill="#CCCCCC"/>
<path d="M1124.72 173.332C1124.72 162.974 1127.68 152.849 1133.24 144.236C1138.79 135.624 1146.69 128.911 1155.92 124.948C1165.16 120.984 1175.32 119.947 1185.12 121.967C1194.93 123.988 1203.93 128.976 1211 136.3C1218.07 143.625 1222.89 152.956 1224.84 163.115C1226.79 173.274 1225.78 183.804 1221.96 193.374C1218.13 202.944 1211.66 211.123 1203.34 216.878C1195.03 222.632 1185.26 225.704 1175.26 225.704C1168.63 225.704 1162.05 224.349 1155.92 221.717C1149.79 219.085 1144.22 215.228 1139.52 210.365C1134.83 205.501 1131.11 199.728 1128.57 193.374C1126.03 187.02 1124.72 180.21 1124.72 173.332V173.332ZM1175.26 124.99C1162.89 125.004 1151.04 130.102 1142.29 139.165C1133.54 148.228 1128.62 160.516 1128.61 173.332V173.332C1128.61 182.894 1131.34 192.24 1136.47 200.19C1141.6 208.14 1148.88 214.336 1157.41 217.995C1165.93 221.654 1175.32 222.612 1184.37 220.746C1193.42 218.881 1201.73 214.277 1208.25 207.516C1214.78 200.755 1219.22 192.141 1221.02 182.764C1222.82 173.386 1221.9 163.666 1218.37 154.832C1214.84 145.999 1208.86 138.449 1201.18 133.137C1193.51 127.825 1184.49 124.99 1175.26 124.99V124.99Z" fill="#6C63FF"/>
<path d="M1203.11 148.371H1147.59C1144.52 148.374 1142.04 150.514 1142.04 153.155V172.288C1142.04 174.928 1144.52 177.068 1147.59 177.071H1203.11C1206.17 177.068 1208.66 174.928 1208.66 172.288V153.155C1208.66 150.514 1206.17 148.374 1203.11 148.371ZM1149.81 150.285H1200.89V153.155C1200.89 154.74 1199.4 156.025 1197.56 156.025H1153.14C1151.3 156.025 1149.81 154.74 1149.81 153.155V150.285ZM1200.89 175.158H1149.81V174.201H1200.89V175.158ZM1200.89 172.288H1149.81V171.331H1200.89V172.288ZM1200.89 169.418H1149.81V168.461H1200.89V169.418ZM1206.44 172.288C1206.44 173.873 1204.95 175.158 1203.11 175.158V167.504C1203.11 166.976 1202.61 166.548 1202 166.548H1148.7C1148.08 166.548 1147.59 166.976 1147.59 167.504V175.158C1145.75 175.158 1144.26 173.873 1144.26 172.288V153.155C1144.26 151.569 1145.75 150.285 1147.59 150.285V153.155C1147.59 155.795 1150.08 157.935 1153.14 157.938H1197.56C1200.62 157.935 1203.11 155.795 1203.11 153.155V150.285C1204.95 150.285 1206.44 151.569 1206.44 153.155V172.288Z" fill="#6C63FF"/>
<path d="M1178.68 163.678H1169.8C1169.18 163.678 1168.69 164.106 1168.69 164.635C1168.69 165.163 1169.18 165.591 1169.8 165.591H1178.68C1179.29 165.591 1179.79 165.163 1179.79 164.635C1179.79 164.106 1179.29 163.678 1178.68 163.678Z" fill="#6C63FF"/>
<path d="M1198.67 159.851H1197.56C1196.94 159.851 1196.45 160.28 1196.45 160.808C1196.45 161.336 1196.94 161.765 1197.56 161.765H1198.67C1199.28 161.765 1199.78 161.336 1199.78 160.808C1199.78 160.28 1199.28 159.851 1198.67 159.851Z" fill="#6C63FF"/>
<path d="M1203.11 159.851H1202C1201.38 159.851 1200.89 160.28 1200.89 160.808C1200.89 161.336 1201.38 161.765 1202 161.765H1203.11C1203.72 161.765 1204.22 161.336 1204.22 160.808C1204.22 160.28 1203.72 159.851 1203.11 159.851Z" fill="#6C63FF"/>
<path d="M1177.57 179.941C1177.57 179.413 1177.07 178.984 1176.46 178.984C1175.85 178.984 1175.35 179.413 1175.35 179.941C1175.37 180.79 1175.04 181.617 1174.42 182.279C1172.7 184.301 1172.7 187.058 1174.42 189.08C1175.66 190.46 1175.66 192.38 1174.42 193.76C1173.56 194.737 1173.11 195.934 1173.13 197.161C1173.13 197.689 1173.62 198.118 1174.24 198.118C1174.85 198.118 1175.35 197.689 1175.35 197.161C1175.33 196.312 1175.65 195.483 1176.27 194.821C1178 192.798 1178 190.041 1176.27 188.018C1175.04 186.639 1175.04 184.719 1176.27 183.34C1177.13 182.364 1177.59 181.167 1177.57 179.941Z" fill="#6C63FF"/>
<path d="M1168.69 179.941C1168.69 179.413 1168.19 178.984 1167.58 178.984C1166.96 178.984 1166.46 179.413 1166.46 179.941C1166.49 180.79 1166.16 181.617 1165.54 182.279C1163.81 184.301 1163.81 187.058 1165.54 189.08C1166.77 190.46 1166.77 192.38 1165.54 193.76C1164.68 194.737 1164.22 195.934 1164.24 197.161C1164.24 197.689 1164.74 198.118 1165.35 198.118C1165.97 198.118 1166.46 197.689 1166.46 197.161C1166.44 196.312 1166.77 195.483 1167.39 194.821C1169.12 192.798 1169.12 190.041 1167.39 188.018C1166.16 186.639 1166.16 184.719 1167.39 183.34C1168.25 182.364 1168.71 181.167 1168.69 179.941Z" fill="#6C63FF"/>
<path d="M1186.45 179.941C1186.45 179.413 1185.96 178.984 1185.34 178.984C1184.73 178.984 1184.23 179.413 1184.23 179.941C1184.25 180.79 1183.92 181.617 1183.31 182.279C1181.58 184.301 1181.58 187.058 1183.31 189.08C1184.54 190.46 1184.54 192.38 1183.31 193.76C1182.45 194.737 1181.99 195.934 1182.01 197.161C1182.01 197.689 1182.51 198.118 1183.12 198.118C1183.73 198.118 1184.23 197.689 1184.23 197.161C1184.21 196.312 1184.54 195.483 1185.16 194.821C1186.88 192.798 1186.88 190.041 1185.16 188.018C1183.92 186.639 1183.92 184.719 1185.16 183.34C1186.02 182.364 1186.47 181.167 1186.45 179.941Z" fill="#6C63FF"/>
<path d="M928.291 366.405L1265.97 360.502L1266.01 363.441L930.939 369.3V517.813H928.291V366.405Z" fill="#A6A6A6"/>
<path d="M1391.97 420.09H1230.4V430.424H1391.97V420.09Z" fill="#CCCCCC"/>
<path d="M1391.97 449.616H1230.4V459.95H1391.97V449.616Z" fill="#CCCCCC"/>
<path d="M1391.97 479.142H1230.4V489.476H1391.97V479.142Z" fill="#CCCCCC"/>
<path d="M1264.86 360.437C1264.86 350.079 1267.83 339.953 1273.38 331.341C1278.93 322.728 1286.83 316.016 1296.06 312.052C1305.3 308.088 1315.46 307.051 1325.27 309.072C1335.07 311.093 1344.08 316.08 1351.15 323.405C1358.21 330.729 1363.03 340.061 1364.98 350.22C1366.93 360.379 1365.93 370.909 1362.1 380.478C1358.28 390.048 1351.8 398.227 1343.49 403.982C1335.17 409.736 1325.4 412.808 1315.41 412.808C1308.77 412.808 1302.2 411.453 1296.06 408.822C1289.93 406.19 1284.36 402.332 1279.67 397.469C1274.97 392.606 1271.25 386.832 1268.71 380.478C1266.17 374.124 1264.86 367.314 1264.86 360.437V360.437ZM1315.41 312.094C1303.04 312.109 1291.18 317.207 1282.43 326.27C1273.68 335.332 1268.77 347.62 1268.75 360.437V360.437C1268.75 369.998 1271.49 379.345 1276.61 387.294C1281.74 395.244 1289.03 401.441 1297.55 405.1C1306.08 408.759 1315.46 409.716 1324.51 407.851C1333.56 405.985 1341.87 401.381 1348.4 394.62C1354.92 387.859 1359.36 379.245 1361.16 369.868C1362.97 360.49 1362.04 350.77 1358.51 341.937C1354.98 333.103 1349 325.553 1341.33 320.241C1333.65 314.929 1324.63 312.094 1315.41 312.094V312.094Z" fill="#6C63FF"/>
<path d="M1338.47 363.82V366.995C1338.47 368.027 1337.66 368.863 1336.66 368.863H1327.72C1326.72 368.863 1325.91 368.027 1325.91 366.995V363.82C1325.91 362.915 1326.53 362.161 1327.36 361.989V358.414C1327.36 357.777 1326.86 357.258 1326.24 357.258H1325.87C1324.2 360.351 1321.06 362.288 1317.56 362.288C1314.05 362.288 1310.91 360.351 1309.24 357.258H1295.49C1294.49 357.258 1293.67 356.421 1293.67 355.389V349.219C1293.67 348.187 1294.49 347.351 1295.49 347.351H1309.43C1310.57 345.415 1312.33 343.966 1314.37 343.217V340.896C1314.37 340.768 1314.38 340.644 1314.4 340.523H1309.54C1308.54 340.523 1307.73 339.686 1307.73 338.654V335.979C1307.73 334.946 1308.54 334.11 1309.54 334.11H1314.37V333.877C1314.37 332.845 1315.18 332.009 1316.18 332.009H1318.93C1319.93 332.009 1320.74 332.845 1320.74 333.877V334.11H1325.57C1326.57 334.11 1327.38 334.946 1327.38 335.979V338.654C1327.38 339.686 1326.57 340.523 1325.57 340.523H1320.71C1320.73 340.644 1320.74 340.768 1320.74 340.896V343.217C1322.78 343.966 1324.54 345.414 1325.68 347.351H1329.17C1333.44 347.351 1336.91 350.93 1336.91 355.329V361.97C1337.79 362.093 1338.47 362.873 1338.47 363.82ZM1336.59 381.762C1336.57 381.65 1336.54 381.541 1336.5 381.437L1333.8 372.587C1333.57 371.808 1332.87 371.279 1332.07 371.279C1331.28 371.279 1330.58 371.808 1330.35 372.587L1327.61 381.569C1327.6 381.614 1327.59 381.659 1327.58 381.704C1327.43 382.178 1327.36 382.666 1327.36 383.157C1327.36 385.839 1329.47 388.021 1332.07 388.021C1334.67 388.021 1336.79 385.839 1336.79 383.157C1336.79 382.686 1336.72 382.218 1336.59 381.762Z" fill="#6C63FF"/>
<path d="M256.295 680.529H617.899V532.114H620.437V683.466H256.295V680.529Z" fill="#CCCCCC"/>
<path d="M291.905 747.82H129.937V758.546H291.905V747.82Z" fill="#CCCCCC"/>
<path d="M291.905 776.422H129.937V787.148H291.905V776.422Z" fill="#CCCCCC"/>
<path d="M291.905 806.216H129.937V815.75H291.905V806.216Z" fill="#CCCCCC"/>
<path d="M155.209 683.466C155.209 673.095 158.173 662.957 163.727 654.333C169.281 645.71 177.175 638.989 186.41 635.02C195.646 631.052 205.808 630.013 215.613 632.036C225.417 634.06 234.423 639.054 241.492 646.387C248.56 653.721 253.374 663.064 255.324 673.236C257.274 683.408 256.274 693.951 252.448 703.533C248.623 713.114 242.144 721.304 233.833 727.066C225.521 732.827 215.749 735.903 205.752 735.903C192.347 735.903 179.491 730.378 170.013 720.544C160.534 710.71 155.209 697.373 155.209 683.466V683.466ZM205.752 635.062C196.525 635.062 187.504 637.901 179.832 643.22C172.159 648.538 166.18 656.098 162.648 664.943C159.117 673.787 158.193 683.519 159.993 692.909C161.794 702.298 166.237 710.923 172.762 717.692C179.287 724.461 187.6 729.071 196.65 730.939C205.7 732.807 215.081 731.848 223.606 728.185C232.131 724.521 239.418 718.317 244.545 710.357C249.671 702.397 252.407 693.039 252.407 683.466C252.393 670.633 247.473 658.33 238.727 649.256C229.98 640.181 218.122 635.077 205.752 635.062Z" fill="#6C63FF"/>
<path d="M191.585 673.535C192.894 673.535 193.882 671.827 193.882 669.562C193.882 667.297 192.894 665.59 191.585 665.59C190.275 665.59 189.287 667.297 189.287 669.562C189.287 671.827 190.275 673.535 191.585 673.535ZM191.585 667.179C191.775 667.179 192.351 668.024 192.351 669.562C192.351 671.1 191.775 671.946 191.585 671.946C191.394 671.946 190.819 671.1 190.819 669.562C190.819 668.024 191.394 667.179 191.585 667.179Z" fill="#6C63FF"/>
<path d="M222.217 660.823H191.585C188.579 660.823 186.224 664.662 186.224 669.562V687.836C186.224 689.591 187.596 691.014 189.287 691.014C189.827 691.01 190.355 690.858 190.819 690.572V692.603C190.819 694.358 192.19 695.781 193.882 695.781C195.574 695.781 196.945 694.358 196.945 692.603V687.394C197.409 687.68 197.938 687.832 198.477 687.836C200.169 687.836 201.54 686.413 201.54 684.658V678.302H222.217C223.732 678.302 225.08 677.325 226.046 675.731V677.507C226.046 679.262 224.675 680.685 222.983 680.685H210.73C208.49 680.689 206.579 682.367 206.204 684.658H205.369C204.946 684.658 204.603 685.013 204.603 685.452V687.836H203.838C203.415 687.836 203.072 688.191 203.072 688.63V709.287C203.072 709.726 203.415 710.082 203.838 710.082H209.964C210.387 710.082 210.73 709.726 210.73 709.287V688.63C210.73 688.191 210.387 687.836 209.964 687.836H209.198V685.452C209.198 685.013 208.855 684.658 208.433 684.658H207.775C208.124 683.259 209.337 682.28 210.73 682.274H222.983C225.519 682.272 227.575 680.139 227.578 677.507V669.562C227.578 664.662 225.223 660.823 222.217 660.823ZM206.135 686.247H207.667V687.836H206.135V686.247ZM209.198 689.425V708.493H204.603V689.425H209.198ZM191.585 662.412C193.66 662.412 195.414 665.686 195.414 669.562C195.414 673.439 193.66 676.713 191.585 676.713C189.509 676.713 187.756 673.439 187.756 669.562C187.756 665.686 189.509 662.412 191.585 662.412ZM200.009 684.658C200.009 685.535 199.323 686.247 198.477 686.247C197.631 686.247 196.945 685.535 196.945 684.658V682.274H195.414V692.603C195.414 693.48 194.728 694.192 193.882 694.192C193.036 694.192 192.351 693.48 192.351 692.603V686.247H190.819V687.836C190.819 688.713 190.133 689.425 189.287 689.425C188.441 689.425 187.756 688.713 187.756 687.836V675.731C188.721 677.325 190.07 678.302 191.585 678.302H200.009V684.658ZM222.217 676.713H194.698C196.249 674.686 197.047 672.148 196.945 669.562C197.047 666.976 196.249 664.439 194.698 662.412H222.217C224.292 662.412 226.046 665.686 226.046 669.562C226.046 673.439 224.292 676.713 222.217 676.713Z" fill="#6C63FF"/>
<path d="M207.667 705.315H206.135V706.904H207.667V705.315Z" fill="#6C63FF"/>
<path d="M606.752 92.8798H399.884V91.1674H607.801V179.357H606.752V92.8798Z" fill="#A6A6A6"/>
<path d="M432.802 153.438H271.229V163.772H432.802V153.438Z" fill="#CCCCCC"/>
<path d="M432.802 182.964H271.229V193.298H432.802V182.964Z" fill="#CCCCCC"/>
<path d="M432.802 212.49H271.229V222.824H432.802V212.49Z" fill="#CCCCCC"/>
<path d="M301.095 90.9717C301.095 80.6136 304.059 70.4881 309.613 61.8757C315.167 53.2633 323.061 46.5508 332.296 42.5869C341.532 38.6231 351.694 37.5859 361.499 39.6067C371.303 41.6274 380.309 46.6153 387.378 53.9396C394.446 61.2638 399.26 70.5955 401.21 80.7545C403.16 90.9136 402.16 101.444 398.334 111.013C394.509 120.583 388.03 128.762 379.719 134.517C371.407 140.271 361.635 143.343 351.638 143.343C345.001 143.343 338.428 141.988 332.296 139.356C326.164 136.725 320.592 132.867 315.899 128.004C311.205 123.141 307.482 117.367 304.942 111.013C302.402 104.659 301.095 97.8492 301.095 90.9717V90.9717ZM351.638 42.6291C339.269 42.6437 327.41 47.7417 318.664 56.8045C309.917 65.8673 304.997 78.1549 304.983 90.9717V90.9717C304.983 100.533 307.719 109.88 312.846 117.829C317.972 125.779 325.259 131.976 333.784 135.635C342.309 139.294 351.69 140.251 360.74 138.386C369.791 136.52 378.104 131.916 384.629 125.155C391.154 118.394 395.597 109.78 397.397 100.403C399.197 91.0252 398.273 81.3051 394.742 72.4716C391.211 63.6381 385.231 56.088 377.559 50.7761C369.886 45.4641 360.866 42.6289 351.638 42.6289V42.6291Z" fill="#6C63FF"/>
<path d="M364.243 71.2092V90.2296C364.243 90.7685 364.68 91.2049 365.219 91.2049H368.228V118.102H374.083V91.2248H377.083C377.622 91.2248 378.058 90.788 378.058 90.2491V71.2288C378.058 67.1664 374.961 63.8646 371.151 63.8646C367.34 63.8646 364.243 67.1469 364.243 71.2092ZM370.18 116.151V111.625H372.131V116.151H370.18ZM372.131 109.674H370.18V91.2248H372.131V109.674ZM376.107 89.2883H366.194V87.7035H376.112L376.107 89.2883ZM376.107 71.2437V85.7525H366.194V71.2092C366.194 68.2247 368.419 65.796 371.155 65.796C373.892 65.796 376.112 68.2247 376.112 71.2092L376.107 71.2437Z" fill="#6C63FF"/>
<path d="M373.107 84.7041C373.646 84.7041 374.082 84.2677 374.082 83.7288V70.5606C374.082 70.0221 373.646 69.5853 373.107 69.5853C372.568 69.5853 372.131 70.0221 372.131 70.5606V83.7288C372.131 84.2677 372.568 84.7041 373.107 84.7041Z" fill="#6C63FF"/>
<path d="M324.679 79.5482C325.048 79.6971 325.471 79.6062 325.747 79.319C328.24 76.9863 331.509 75.6619 334.923 75.6028C335.705 75.6039 336.486 75.6753 337.255 75.8176C337.314 75.8227 337.372 75.8227 337.431 75.8176C337.504 75.8176 339.192 75.8516 339.192 78.6218V117.126C339.192 117.665 339.628 118.101 340.168 118.101H347.739C348.278 118.101 348.714 117.665 348.714 117.126V78.7388C348.714 78.7094 348.714 78.6801 348.714 78.6511C348.671 77.8852 348.899 77.129 349.359 76.5148C349.865 76.0219 350.561 75.7727 351.266 75.8321H357.783C358.323 75.8321 358.759 75.3957 358.759 74.8568V65.8632C358.759 65.3243 358.323 64.8879 357.783 64.8879H340.534C340.368 64.8879 324.069 65.5902 324.069 78.641C324.068 79.0394 324.309 79.399 324.679 79.5482ZM341.148 116.126V82.9866H346.763V116.15L341.148 116.126ZM356.808 73.876H352.237V66.8389H356.808V73.876ZM340.563 66.8389H350.286V73.9641C349.379 74.0879 348.542 74.5182 347.915 75.1834C347.09 76.191 346.679 77.4734 346.763 78.7728V81.0649H341.148V78.6265C341.148 74.9589 338.836 73.9202 337.533 73.8713C336.672 73.7167 335.799 73.6381 334.923 73.6374C331.807 73.6642 328.771 74.633 326.216 76.417C327.928 67.38 340.041 66.8581 340.563 66.8389Z" fill="#6C63FF"/>
</svg>
