<svg width="530" height="443" viewBox="0 0 530 443" fill="none" xmlns="http://www.w3.org/2000/svg">
<g filter="url(#filter0_d)">
<path fill-rule="evenodd" clip-rule="evenodd" d="M93.9406 318.864C93.9406 318.864 51.1344 366.574 47.6684 381.531C44.2024 396.488 34.448 417.976 90.6496 427.984C146.851 437.991 253.32 404.141 274.113 383.995C294.907 363.85 373.183 315.598 373.183 315.598C373.183 315.598 467.26 274.466 472.145 268.128C477.029 261.79 505.727 256.107 508.18 216.043C507.268 202.574 495.86 202.776 495.86 202.776L492.39 191.596L480.918 184.786C480.918 184.786 440.794 51.3125 335.771 30.8953C230.747 10.4781 165.301 75 149.813 90.8748C118.468 123.001 108.718 160.854 108.718 160.854C108.718 160.854 88.3451 223.363 97.942 274.639C97.9094 280.917 89.1621 293.754 89.1621 293.754L93.9396 318.864L93.9406 318.864Z" fill="#DF6B00"/>
<path fill-rule="evenodd" clip-rule="evenodd" d="M93.9406 318.864C93.9406 318.864 51.1344 366.574 47.6684 381.531C44.2024 396.488 34.448 417.976 90.6496 427.984C146.851 437.991 253.32 404.141 274.113 383.995C294.907 363.85 373.183 315.598 373.183 315.598C373.183 315.598 467.26 274.466 472.145 268.128C477.029 261.79 505.727 256.107 508.18 216.043C507.268 202.574 495.86 202.776 495.86 202.776L492.39 191.596L480.918 184.786C480.918 184.786 440.794 51.3125 335.771 30.8953C230.747 10.4781 165.301 75 149.813 90.8748C118.468 123.001 108.718 160.854 108.718 160.854C108.718 160.854 88.3451 223.363 97.942 274.639C97.9094 280.917 89.1621 293.754 89.1621 293.754L93.9396 318.864L93.9406 318.864Z" stroke="#813E00" stroke-width="0.5"/>
</g>
<path d="M103.283 331.553C103.283 331.553 131.412 355.361 214.463 343.463C297.515 331.565 373.717 297.893 373.717 297.893" stroke="#A34E00" stroke-width="0.708661"/>
<path fill-rule="evenodd" clip-rule="evenodd" d="M81.5451 426.363C81.5451 426.363 135.852 379.301 159.214 374.341C182.575 369.382 222.754 353.181 222.754 353.181L267.483 341.144L273.337 333.479L261.724 284.268C261.724 284.268 278.982 180.657 295.646 168.241C312.31 155.825 286.399 80.4708 286.399 80.4708C286.399 80.4708 267.959 32.389 258.184 31.5225C248.408 30.6559 172 56 150.814 90.8751C120.001 120 108.706 157.627 107.719 160.854C106.733 164.081 87.2623 211.62 96.9074 275.34C106.552 339.059 92.7988 319.227 92.7988 319.227C92.7988 319.227 45.2 370.884 45.1114 387.857C42.122 403.43 41.7987 416.25 81.5451 426.366L81.5451 426.363Z" fill="#BE5B00"/>
<path fill-rule="evenodd" clip-rule="evenodd" d="M404.967 285.367L396.711 244.282L412.586 258.554L416.158 280.681L404.967 285.367Z" fill="#EA7A13" stroke="#9A4B01" stroke-width="0.708661"/>
<path fill-rule="evenodd" clip-rule="evenodd" d="M214.455 343.454L207.887 299.834L217.122 311.423L222.578 353.104L214.455 343.454Z" fill="#EA7A13" stroke="#D76700" stroke-width="0.708661"/>
<path fill-rule="evenodd" clip-rule="evenodd" d="M439.334 244.449L431.654 227.27L396.72 244.272L412.595 258.544L439.334 244.449Z" fill="#EA7A13" stroke="#9E4C00" stroke-width="0.708661"/>
<path fill-rule="evenodd" clip-rule="evenodd" d="M256.809 304.549L217.121 311.443L207.548 298.97L261.574 284.183L273.162 333.395L267.306 341.063L256.809 304.549Z" fill="#EA7A13" stroke="#823E00" stroke-width="0.708661"/>
<path fill-rule="evenodd" clip-rule="evenodd" d="M217.129 311.428L222.586 353.109L267.314 341.048L256.598 300.68L217.129 311.428Z" fill="#F2831C" stroke="#7E3D00" stroke-width="0.708661"/>
<path fill-rule="evenodd" clip-rule="evenodd" d="M412.597 258.557L416.169 280.685L445.322 266.775L439.336 244.463L412.597 258.557Z" fill="#F2831C" stroke="#984900" stroke-width="0.708661"/>
<path fill-rule="evenodd" clip-rule="evenodd" d="M495.063 203.445C495.063 203.445 505.38 208.481 503.201 218.039C501.022 227.597 495.105 233.71 495.105 233.71L493.206 232.159C493.206 232.159 504.988 222.955 495.063 203.444L495.063 203.445Z" fill="#EA7A13" stroke="#DE6A00" stroke-width="0.708661"/>
<path fill-rule="evenodd" clip-rule="evenodd" d="M281.579 376.426L373.721 297.889C373.721 297.889 538.879 238.625 495.053 203.458C490.922 197.209 502.527 205.504 502.527 205.504C502.527 205.504 511.891 215.122 504.952 230.681C498.013 246.239 501.788 245.868 484.362 258.89C466.936 271.911 438.014 285.516 438.014 285.516L370.515 316.379L281.576 376.429L281.579 376.426Z" fill="#FF7A00" stroke="#8C4301" stroke-width="0.5"/>
<path fill-rule="evenodd" clip-rule="evenodd" d="M491.265 191.37L479.798 184.565L479.023 193.931L490.733 200.405L491.265 191.37Z" fill="#EA7A13" stroke="#B45600" stroke-width="0.708661"/>
<path fill-rule="evenodd" clip-rule="evenodd" d="M494.728 202.555L498.792 213.952L498.986 223.025L490.731 200.41L491.451 192.505L494.728 202.555Z" fill="#EA7A13" stroke="#924600" stroke-width="0.708661"/>
<path fill-rule="evenodd" clip-rule="evenodd" d="M479.018 194.929L493.189 233.165L499.01 225.371L490.727 201.402L479.018 194.929Z" fill="#EA7A13" stroke="#AD5300" stroke-width="0.708661"/>
<path fill-rule="evenodd" clip-rule="evenodd" d="M371.1 81.3521C385.987 79.3264 399.196 86.3588 400.597 97.0564C401.997 107.754 391.06 118.072 376.172 120.098C361.284 122.123 348.075 115.091 346.675 104.393C345.274 93.6959 356.212 83.3778 371.1 81.3521Z" fill="#EA7A13"/>
<path fill-rule="evenodd" clip-rule="evenodd" d="M291.018 233.861L294.471 190.371L316.431 192.164L313.639 231.979L291.018 233.861Z" fill="#F2831C"/>
<path fill-rule="evenodd" clip-rule="evenodd" d="M201.387 53.0431C117.967 102.918 117.322 194.522 101.592 280.181L95.7317 269.982C95.7317 269.982 85.7213 190.255 120.325 129.472C154.929 68.6878 201.387 53.0431 201.387 53.0431Z" fill="#BE5B00"/>
<path d="M203.385 202.164C203.385 202.164 190.181 105.232 268.922 69.5622C347.662 33.8925 385.505 69.2344 385.505 69.2344" stroke="#AC5300" stroke-opacity="0.75" stroke-width="2.50016"/>
<path d="M150.336 205.087C150.336 205.087 158.339 48.3386 306.949 29.0448" stroke="#9B4B00" stroke-opacity="0.47" stroke-width="2.50016" stroke-linejoin="round"/>
<path fill-rule="evenodd" clip-rule="evenodd" d="M89.403 299.741L95.9257 338.666L103.282 331.539L99.2136 284.097L89.403 299.741Z" fill="#EA7A13" stroke="#813E00" stroke-width="0.708661"/>
<path fill-rule="evenodd" clip-rule="evenodd" d="M89.4029 299.741C88.3917 299.873 99.2135 284.097 99.2135 284.097L96.3858 277.449L88.042 293.731L89.4029 299.741Z" fill="#EA7A13" stroke="#944700" stroke-width="0.708661"/>
<defs>
<filter id="filter0_d" x="25.5254" y="26.6913" width="482.904" height="415.352" filterUnits="userSpaceOnUse" color-interpolation-filters="sRGB">
<feFlood flood-opacity="0" result="BackgroundImageFix"/>
<feColorMatrix in="SourceAlpha" type="matrix" values="0 0 0 0 0 0 0 0 0 0 0 0 0 0 0 0 0 0 127 0" result="hardAlpha"/>
<feOffset dx="-13" dy="6"/>
<feGaussianBlur stdDeviation="3"/>
<feComposite in2="hardAlpha" operator="out"/>
<feColorMatrix type="matrix" values="0 0 0 0 0 0 0 0 0 0 0 0 0 0 0 0 0 0 0.1 0"/>
<feBlend mode="normal" in2="BackgroundImageFix" result="effect1_dropShadow"/>
<feBlend mode="normal" in="SourceGraphic" in2="effect1_dropShadow" result="shape"/>
</filter>
</defs>
</svg>
