<svg width="1440" height="265" viewBox="0 0 1440 265" fill="none" xmlns="http://www.w3.org/2000/svg">
<rect width="1440" height="265" fill="url(#paint0_linear)"/>
<path d="M0 0H7V104.5C7 106.433 5.433 108 3.5 108V108C1.567 108 0 106.433 0 104.5V0Z" fill="url(#paint1_linear)" fill-opacity="0.58"/>
<path d="M49.4141 0H56.4141V175.5C56.4141 177.433 54.8471 179 52.9141 179V179C50.9811 179 49.4141 177.433 49.4141 175.5V0Z" fill="url(#paint2_linear)" fill-opacity="0.58"/>
<path d="M98.8281 0H105.828V104.5C105.828 106.433 104.261 108 102.328 108V108C100.395 108 98.8281 106.433 98.8281 104.5V0Z" fill="url(#paint3_linear)" fill-opacity="0.58"/>
<path d="M148.242 0H155.242V136.5C155.242 138.433 153.675 140 151.742 140V140C149.809 140 148.242 138.433 148.242 136.5V0Z" fill="url(#paint4_linear)" fill-opacity="0.58"/>
<path d="M197.654 0H204.654V104.5C204.654 106.433 203.087 108 201.154 108V108C199.221 108 197.654 106.433 197.654 104.5V0Z" fill="url(#paint5_linear)" fill-opacity="0.58"/>
<path d="M247.068 0H254.068V175.5C254.068 177.433 252.501 179 250.568 179V179C248.635 179 247.068 177.433 247.068 175.5V0Z" fill="url(#paint6_linear)" fill-opacity="0.58"/>
<path d="M296.482 0H303.482V104.5C303.482 106.433 301.915 108 299.982 108V108C298.049 108 296.482 106.433 296.482 104.5V0Z" fill="url(#paint7_linear)" fill-opacity="0.58"/>
<path d="M345.896 0H352.896V136.5C352.896 138.433 351.329 140 349.396 140V140C347.463 140 345.896 138.433 345.896 136.5V0Z" fill="url(#paint8_linear)" fill-opacity="0.58"/>
<path d="M395.311 0H402.311V196.5C402.311 198.433 400.744 200 398.811 200V200C396.878 200 395.311 198.433 395.311 196.5V0Z" fill="url(#paint9_linear)" fill-opacity="0.58"/>
<path d="M444.725 0H451.725V50.5C451.725 52.433 450.158 54 448.225 54V54C446.292 54 444.725 52.433 444.725 50.5V0Z" fill="url(#paint10_linear)" fill-opacity="0.58"/>
<path d="M494.139 0H501.139V136.5C501.139 138.433 499.572 140 497.639 140V140C495.706 140 494.139 138.433 494.139 136.5V0Z" fill="url(#paint11_linear)" fill-opacity="0.58"/>
<path d="M543.551 0H550.551V25.5C550.551 27.433 548.984 29 547.051 29V29C545.118 29 543.551 27.433 543.551 25.5V0Z" fill="url(#paint12_linear)" fill-opacity="0.58"/>
<path d="M592.965 0H599.965V136.5C599.965 138.433 598.398 140 596.465 140V140C594.532 140 592.965 138.433 592.965 136.5V0Z" fill="url(#paint13_linear)" fill-opacity="0.58"/>
<path d="M642.379 0H649.379V212.5C649.379 214.433 647.812 216 645.879 216V216C643.946 216 642.379 214.433 642.379 212.5V0Z" fill="url(#paint14_linear)" fill-opacity="0.58"/>
<path d="M691.793 0H698.793V69.5C698.793 71.433 697.226 73 695.293 73V73C693.36 73 691.793 71.433 691.793 69.5V0Z" fill="url(#paint15_linear)" fill-opacity="0.58"/>
<path d="M741.207 0H748.207V104.5C748.207 106.433 746.64 108 744.707 108V108C742.774 108 741.207 106.433 741.207 104.5V0Z" fill="url(#paint16_linear)" fill-opacity="0.58"/>
<path d="M790.621 0H797.621V104.5C797.621 106.433 796.054 108 794.121 108V108C792.188 108 790.621 106.433 790.621 104.5V0Z" fill="url(#paint17_linear)" fill-opacity="0.58"/>
<path d="M840.035 0H847.035V25.5C847.035 27.433 845.468 29 843.535 29V29C841.602 29 840.035 27.433 840.035 25.5V0Z" fill="url(#paint18_linear)" fill-opacity="0.58"/>
<path d="M889.449 0H896.449V175.5C896.449 177.433 894.882 179 892.949 179V179C891.016 179 889.449 177.433 889.449 175.5V0Z" fill="url(#paint19_linear)" fill-opacity="0.58"/>
<path d="M938.861 0H945.861V196.5C945.861 198.433 944.294 200 942.361 200V200C940.428 200 938.861 198.433 938.861 196.5V0Z" fill="url(#paint20_linear)" fill-opacity="0.58"/>
<path d="M988.275 0H995.275V50.5C995.275 52.433 993.708 54 991.775 54V54C989.842 54 988.275 52.433 988.275 50.5V0Z" fill="url(#paint21_linear)" fill-opacity="0.58"/>
<path d="M1037.69 0H1044.69V136.5C1044.69 138.433 1043.12 140 1041.19 140V140C1039.26 140 1037.69 138.433 1037.69 136.5V0Z" fill="url(#paint22_linear)" fill-opacity="0.58"/>
<path d="M1087.1 0H1094.1V25.5C1094.1 27.433 1092.54 29 1090.6 29V29C1088.67 29 1087.1 27.433 1087.1 25.5V0Z" fill="url(#paint23_linear)" fill-opacity="0.58"/>
<path d="M1136.52 0H1143.52V136.5C1143.52 138.433 1141.95 140 1140.02 140V140C1138.08 140 1136.52 138.433 1136.52 136.5V0Z" fill="url(#paint24_linear)" fill-opacity="0.58"/>
<path d="M1185.93 0H1192.93V212.5C1192.93 214.433 1191.36 216 1189.43 216V216C1187.5 216 1185.93 214.433 1185.93 212.5V0Z" fill="url(#paint25_linear)" fill-opacity="0.58"/>
<path d="M1235.35 0H1242.35V69.5C1242.35 71.433 1240.78 73 1238.85 73V73C1236.91 73 1235.35 71.433 1235.35 69.5V0Z" fill="url(#paint26_linear)" fill-opacity="0.58"/>
<path d="M1284.76 0H1291.76V104.5C1291.76 106.433 1290.19 108 1288.26 108V108C1286.33 108 1284.76 106.433 1284.76 104.5V0Z" fill="url(#paint27_linear)" fill-opacity="0.58"/>
<path d="M1334.17 0H1341.17V104.5C1341.17 106.433 1339.6 108 1337.67 108V108C1335.74 108 1334.17 106.433 1334.17 104.5V0Z" fill="url(#paint28_linear)" fill-opacity="0.58"/>
<path d="M1383.59 0H1390.59V25.5C1390.59 27.433 1389.02 29 1387.09 29V29C1385.15 29 1383.59 27.433 1383.59 25.5V0Z" fill="url(#paint29_linear)" fill-opacity="0.58"/>
<path d="M1433 0H1440V175.5C1440 177.433 1438.43 179 1436.5 179V179C1434.57 179 1433 177.433 1433 175.5V0Z" fill="url(#paint30_linear)" fill-opacity="0.58"/>
<defs>
<linearGradient id="paint0_linear" x1="720" y1="0" x2="720" y2="265" gradientUnits="userSpaceOnUse">
<stop stop-color="#0027DA"/>
<stop offset="1" stop-color="white"/>
</linearGradient>
<linearGradient id="paint1_linear" x1="3.5" y1="0" x2="3.5" y2="108" gradientUnits="userSpaceOnUse">
<stop stop-color="#0625B1"/>
<stop offset="1" stop-color="white"/>
</linearGradient>
<linearGradient id="paint2_linear" x1="52.9141" y1="0" x2="52.9141" y2="179" gradientUnits="userSpaceOnUse">
<stop stop-color="#0625B1"/>
<stop offset="1" stop-color="white"/>
</linearGradient>
<linearGradient id="paint3_linear" x1="102.328" y1="0" x2="102.328" y2="108" gradientUnits="userSpaceOnUse">
<stop stop-color="#0625B1"/>
<stop offset="1" stop-color="white"/>
</linearGradient>
<linearGradient id="paint4_linear" x1="151.742" y1="0" x2="151.742" y2="140" gradientUnits="userSpaceOnUse">
<stop stop-color="#0625B1"/>
<stop offset="1" stop-color="white"/>
</linearGradient>
<linearGradient id="paint5_linear" x1="201.154" y1="0" x2="201.154" y2="108" gradientUnits="userSpaceOnUse">
<stop stop-color="#0625B1"/>
<stop offset="1" stop-color="white"/>
</linearGradient>
<linearGradient id="paint6_linear" x1="250.568" y1="0" x2="250.568" y2="179" gradientUnits="userSpaceOnUse">
<stop stop-color="#0625B1"/>
<stop offset="1" stop-color="white"/>
</linearGradient>
<linearGradient id="paint7_linear" x1="299.982" y1="0" x2="299.982" y2="108" gradientUnits="userSpaceOnUse">
<stop stop-color="#0625B1"/>
<stop offset="1" stop-color="white"/>
</linearGradient>
<linearGradient id="paint8_linear" x1="349.396" y1="0" x2="349.396" y2="140" gradientUnits="userSpaceOnUse">
<stop stop-color="#0625B1"/>
<stop offset="1" stop-color="white"/>
</linearGradient>
<linearGradient id="paint9_linear" x1="398.811" y1="0" x2="398.811" y2="200" gradientUnits="userSpaceOnUse">
<stop stop-color="#0625B1"/>
<stop offset="1" stop-color="white"/>
</linearGradient>
<linearGradient id="paint10_linear" x1="448.225" y1="0" x2="448.225" y2="54" gradientUnits="userSpaceOnUse">
<stop stop-color="#0625B1"/>
<stop offset="1" stop-color="white"/>
</linearGradient>
<linearGradient id="paint11_linear" x1="497.639" y1="0" x2="497.639" y2="140" gradientUnits="userSpaceOnUse">
<stop stop-color="#0625B1"/>
<stop offset="1" stop-color="white"/>
</linearGradient>
<linearGradient id="paint12_linear" x1="547.051" y1="0" x2="547.051" y2="29" gradientUnits="userSpaceOnUse">
<stop stop-color="#0625B1"/>
<stop offset="1" stop-color="white"/>
</linearGradient>
<linearGradient id="paint13_linear" x1="596.465" y1="0" x2="596.465" y2="140" gradientUnits="userSpaceOnUse">
<stop stop-color="#0625B1"/>
<stop offset="1" stop-color="white"/>
</linearGradient>
<linearGradient id="paint14_linear" x1="645.879" y1="0" x2="645.879" y2="216" gradientUnits="userSpaceOnUse">
<stop stop-color="#0625B1"/>
<stop offset="1" stop-color="white"/>
</linearGradient>
<linearGradient id="paint15_linear" x1="695.293" y1="0" x2="695.293" y2="73" gradientUnits="userSpaceOnUse">
<stop stop-color="#0625B1"/>
<stop offset="1" stop-color="white"/>
</linearGradient>
<linearGradient id="paint16_linear" x1="744.707" y1="0" x2="744.707" y2="108" gradientUnits="userSpaceOnUse">
<stop stop-color="#0625B1"/>
<stop offset="1" stop-color="white"/>
</linearGradient>
<linearGradient id="paint17_linear" x1="794.121" y1="0" x2="794.121" y2="108" gradientUnits="userSpaceOnUse">
<stop stop-color="#0625B1"/>
<stop offset="1" stop-color="white"/>
</linearGradient>
<linearGradient id="paint18_linear" x1="843.535" y1="0" x2="843.535" y2="29" gradientUnits="userSpaceOnUse">
<stop stop-color="#0625B1"/>
<stop offset="1" stop-color="white"/>
</linearGradient>
<linearGradient id="paint19_linear" x1="892.949" y1="0" x2="892.949" y2="179" gradientUnits="userSpaceOnUse">
<stop stop-color="#0625B1"/>
<stop offset="1" stop-color="white"/>
</linearGradient>
<linearGradient id="paint20_linear" x1="942.361" y1="0" x2="942.361" y2="200" gradientUnits="userSpaceOnUse">
<stop stop-color="#0625B1"/>
<stop offset="1" stop-color="white"/>
</linearGradient>
<linearGradient id="paint21_linear" x1="991.775" y1="0" x2="991.775" y2="54" gradientUnits="userSpaceOnUse">
<stop stop-color="#0625B1"/>
<stop offset="1" stop-color="white"/>
</linearGradient>
<linearGradient id="paint22_linear" x1="1041.19" y1="0" x2="1041.19" y2="140" gradientUnits="userSpaceOnUse">
<stop stop-color="#0625B1"/>
<stop offset="1" stop-color="white"/>
</linearGradient>
<linearGradient id="paint23_linear" x1="1090.6" y1="0" x2="1090.6" y2="29" gradientUnits="userSpaceOnUse">
<stop stop-color="#0625B1"/>
<stop offset="1" stop-color="white"/>
</linearGradient>
<linearGradient id="paint24_linear" x1="1140.02" y1="0" x2="1140.02" y2="140" gradientUnits="userSpaceOnUse">
<stop stop-color="#0625B1"/>
<stop offset="1" stop-color="white"/>
</linearGradient>
<linearGradient id="paint25_linear" x1="1189.43" y1="0" x2="1189.43" y2="216" gradientUnits="userSpaceOnUse">
<stop stop-color="#0625B1"/>
<stop offset="1" stop-color="white"/>
</linearGradient>
<linearGradient id="paint26_linear" x1="1238.85" y1="0" x2="1238.85" y2="73" gradientUnits="userSpaceOnUse">
<stop stop-color="#0625B1"/>
<stop offset="1" stop-color="white"/>
</linearGradient>
<linearGradient id="paint27_linear" x1="1288.26" y1="0" x2="1288.26" y2="108" gradientUnits="userSpaceOnUse">
<stop stop-color="#0625B1"/>
<stop offset="1" stop-color="white"/>
</linearGradient>
<linearGradient id="paint28_linear" x1="1337.67" y1="0" x2="1337.67" y2="108" gradientUnits="userSpaceOnUse">
<stop stop-color="#0625B1"/>
<stop offset="1" stop-color="white"/>
</linearGradient>
<linearGradient id="paint29_linear" x1="1387.09" y1="0" x2="1387.09" y2="29" gradientUnits="userSpaceOnUse">
<stop stop-color="#0625B1"/>
<stop offset="1" stop-color="white"/>
</linearGradient>
<linearGradient id="paint30_linear" x1="1436.5" y1="0" x2="1436.5" y2="179" gradientUnits="userSpaceOnUse">
<stop stop-color="#0625B1"/>
<stop offset="1" stop-color="white"/>
</linearGradient>
</defs>
</svg>
